<svg t="1669345513081" class="icon" viewBox="0 0 1024 1024" version="1.1" xmlns="http://www.w3.org/2000/svg" p-id="12542" width="32" height="32"><path d="M704 128c-128 0-256-85.333333-384-85.333333a517.674667 517.674667 0 0 0-213.333333 42.666666v853.333334a42.666667 42.666667 0 0 0 85.333333 0v-284.202667a571.477333 571.477333 0 0 1 128-14.464c128 0 256 85.333333 384 85.333333a517.674667 517.674667 0 0 0 213.333333-42.666666V85.333333a517.674667 517.674667 0 0 1-213.333333 42.666667z m128 494.933333a478.805333 478.805333 0 0 1-128 17.066667 593.066667 593.066667 0 0 1-181.589333-43.818667A649.386667 649.386667 0 0 0 320 554.666667a657.834667 657.834667 0 0 0-128 12.544V145.066667a478.805333 478.805333 0 0 1 128-17.066667 593.066667 593.066667 0 0 1 181.589333 43.818667A649.386667 649.386667 0 0 0 704 213.333333a657.834667 657.834667 0 0 0 128-12.544V622.933333z" p-id="12543" fill="#2c2c2c"></path></svg>
