<svg t="1669370213786" class="icon" viewBox="0 0 1024 1024" version="1.1" xmlns="http://www.w3.org/2000/svg" p-id="7953" width="48" height="48"><path d="M38.874074 514.844444s109.037037-57.837037 177.303704-65.422222c54.044444-5.688889 239.881481 28.444444 320.474074 43.614815l146.962963-22.755556 57.837037-106.192592h88.177778l-19.911111 134.637037h0.948148c7.585185 9.481481 11.377778 18.962963 14.222222 28.444444l-107.140741 1.896297v12.325926l32.237037 25.6h-51.2l13.274074 13.274074h-34.133333l2.844444 2.844444 64.474074 61.62963 0.948149 0.948148h0.948148l31.288889-0.948148 41.718518 40.77037H724.385185l-219.022222-64.474074L283.496296 540.444444v-6.637037l183.940741-10.429629 140.325926 7.585185-4.740741-11.377778-142.222222-7.585185-201.007407 12.325926V540.444444l55.94074 32.237037H217.125926c-63.525926-2.844444-124.207407-18.962963-178.251852-57.837037z m692.148148 21.807408v6.637037l111.881482 67.318518H891.259259l-36.977778-62.577777-29.392592-11.377778h-93.866667zM346.074074 445.62963l193.422222 31.288889 84.385185-10.42963 10.42963-26.548148c-10.42963-0.948148-26.548148-0.948148-26.548148-0.948148h-2.844444l1.896296-2.844445 36.029629-71.111111 0.948149-0.948148H665.6l7.585185-19.911111-82.488889-7.585185L346.074074 445.62963z m292.977778-8.533334l27.496296-69.214815h-18.014815L614.4 436.148148c4.740741 0 16.118519 0.948148 24.651852 0.948148z m79.644444 146.962963h-29.392592l61.629629 57.837037 27.496297-0.948148-59.733334-56.888889z m-615.348148-88.177778c18.962963 4.740741 37.925926 10.42963 56.888889 15.170371l45.511111-5.688889c-13.274074-10.42963-25.6-21.807407-30.340741-37.925926-24.651852 7.585185-48.355556 17.066667-72.059259 28.444444z m123.259259 8.533334l56.888889-2.844445c-11.377778-11.377778-21.807407-24.651852-25.6-40.77037-18.014815-0.948148-34.133333-0.948148-45.511111 0-7.585185 0.948148-16.118519 1.896296-23.703704 3.792593 6.637037 16.118519 22.755556 28.444444 37.925926 39.822222z m75.851852-2.844445h42.666667c1.896296-8.533333 2.844444-18.014815 4.740741-26.548148-25.6-6.637037-53.096296-10.42963-76.8-13.274074 4.740741 15.17037 17.066667 28.444444 29.392592 39.822222z" p-id="7954"></path></svg>
