<?xml version="1.0" standalone="no"?><!DOCTYPE svg PUBLIC "-//W3C//DTD SVG 1.1//EN" "http://www.w3.org/Graphics/SVG/1.1/DTD/svg11.dtd"><svg t="1669344780948" class="icon" viewBox="0 0 1033 1024" version="1.1" xmlns="http://www.w3.org/2000/svg" p-id="1426" width="32.28125" height="32" xmlns:xlink="http://www.w3.org/1999/xlink"><path d="M809.074627 746.029851q54.447761 144.238806 223.522388 206.328358l0 58.268657q-259.820896-85.970149-317.134328-264.597015l-138.507463 0 0 277.970149-98.38806 0 0-277.970149-156.656716 0q-63.044776 183.402985-317.134328 264.597015l0-58.268657q169.074627-63.044776 223.522388-206.328358l-210.149254 0 0-53.492537 460.41791 0 0-98.38806-398.328358 0 0-307.58209q-18.149254 10.507463-36.776119 19.58209t-38.686567 15.761194l0-58.268657q132.776119-83.104478 183.402985-240.716418l98.38806 0q-1.910448 4.776119-5.253731 12.41791t-8.119403 18.149254q-15.283582 33.432836-22.925373 44.895522l228.298507 0 0-98.38806 98.38806 0 0 98.38806 415.522388 0 0 49.671642-415.522388 0 0 93.61194 415.522388 0 0 48.716418-415.522388 0 0 98.38806 415.522388 0 0 49.671642-415.522388 0 0 102.208955 415.522388 0 0 53.492537-415.522388 0 0 98.38806 447.044776 0 0 53.492537-214.925373 0zM478.567164 438.447761l-303.761194 0 0 102.208955 303.761194 0 0-102.208955zM478.567164 290.38806l-303.761194 0 0 98.38806 303.761194 0 0-98.38806zM478.567164 148.059701l-255.044776 0q-10.507463 20.059701-22.925373 36.776119t-25.791045 30.089552l0 26.746269 303.761194 0 0-93.61194z" p-id="1427"></path></svg>